<svg width="26" height="22" viewBox="0 0 26 22" fill="none" xmlns="http://www.w3.org/2000/svg">
<path d="M11.4376 12.3127L22.3751 3.12515M11.5705 12.5997L14.3081 18.513C14.5493 19.0339 14.6698 19.2944 14.8436 19.3704C14.9942 19.4363 15.1736 19.4364 15.3244 19.3706C15.4982 19.2948 15.6192 19.0344 15.8611 18.5137L22.726 3.73695C22.9444 3.26692 23.0536 3.0319 22.9938 2.88173C22.942 2.75131 22.8201 2.64896 22.6649 2.60539C22.4861 2.55522 22.2063 2.64694 21.6467 2.83036L4.05534 8.59691C3.43547 8.80011 3.12553 8.90171 3.03521 9.04775C2.95691 9.17435 2.95702 9.32507 3.0355 9.45159C3.12602 9.59754 3.4361 9.69884 4.05625 9.90142L11.0958 12.201C11.2217 12.2421 11.2847 12.2627 11.3377 12.2945C11.3846 12.3226 11.4257 12.3571 11.4592 12.3966C11.497 12.4411 11.5215 12.494 11.5705 12.5997Z" stroke="#FFF7F3" stroke-width="2" stroke-linecap="round" stroke-linejoin="round"/>
</svg>
