<svg id="Layer_1" data-name="Layer 1" xmlns="http://www.w3.org/2000/svg" viewBox="0 0 280 300"><defs><style>.cls-1{fill:#c1531b;}.cls-2{fill:#231f20;}</style></defs><title>Alltech Logo</title><polygon class="cls-1" points="59.82 170.13 59.82 170.13 69.91 170.13 80.31 153 75.49 144.31 59.82 170.13"/><polygon class="cls-1" points="84.58 129.74 78.85 139.47 89.22 158.15 84.82 161.12 83.44 158.62 79.86 164.51 92.75 164.51 95.91 170.21 95.93 170.21 107.03 170.21 84.58 129.74"/><path class="cls-2" d="M131.24,170.18a9.26,9.26,0,0,1-3.4-.73,5.1,5.1,0,0,1-2.49-2.16,3.15,3.15,0,0,1-.24-1.89l2.54-11.77-3.52-.06,1.29-5.19H129l1.57-5.89h7.63l-1.4,6.23h3.7l-1.15,5.12H135.8l-1.92,8.43c-.26.78-.2,1.55.66,1.88l2,.66-1.5,5.37Z"/><polygon class="cls-2" points="110.62 170.22 117.17 140.68 125.49 140.68 119.15 170.22 110.62 170.22"/><polygon class="cls-2" points="106.86 140.72 103.46 155.41 109.13 165.61 114.73 140.72 106.86 140.72"/><path class="cls-2" d="M138.75,155.91s2.42-6.85,11.65-7.42c0,0,6.13-.24,9.11,3.59,0,0,2.38,2.06,2.34,7.29a14.75,14.75,0,0,1-.24,2.06l-16.33,0s-.32,3,4.84,3.42a8.35,8.35,0,0,0,2.78-.4s1.21-.28,1.25-1l6.89-.08a8.7,8.7,0,0,1-4,5,14.55,14.55,0,0,1-8.34,1.81s-5,.09-7.66-2c0,0-3.39-2.18-3.35-7.82a15.22,15.22,0,0,1,1.09-4.39m7.1,1.57h8.7a4,4,0,0,0-4.23-3.43,4.23,4.23,0,0,0-4.47,3.43"/><path class="cls-2" d="M188,157.17h-7.5s-.28-2.37-2.06-3.15a4.54,4.54,0,0,0-5.07.73,8,8,0,0,0-2.42,4.8,5.19,5.19,0,0,0,1,4,4.86,4.86,0,0,0,7.22-1.13A8.06,8.06,0,0,0,180,161h7.09a12.26,12.26,0,0,1-2.62,5.44c-2.06,2.25-4.11,3.18-7.62,3.71a17.6,17.6,0,0,1-6.77-.45,10,10,0,0,1-5.72-4.11c-2-3.26-.89-7.58-.89-7.58a13.67,13.67,0,0,1,6.21-7.74s2.19-1.61,6.91-1.82c0,0,4.37-.07,6.75,1.42,0,0,4.11,2.06,4.56,6.49Z"/><path class="cls-2" d="M199,156.88a3.67,3.67,0,0,1,2.57-1.76,3.8,3.8,0,0,1,2.75.3,1.12,1.12,0,0,1,.62.82,1.94,1.94,0,0,1,0,.56l-2.44,13.38h8.35l2.54-16.61a3.6,3.6,0,0,0-1.2-2.78,6.68,6.68,0,0,0-2.69-1.59,13.3,13.3,0,0,0-6.33.13,6.93,6.93,0,0,0-3.11,1.52l1.77-10.17H193.4l-6.1,29.5h8.57l2.68-12.26a3.11,3.11,0,0,1,.4-1"/><path class="cls-2" d="M220.18,148.07a2.94,2.94,0,1,1-2.87-2.92,2.93,2.93,0,0,1,2.87,2.92m-5.39,0a2.46,2.46,0,1,0,2.42-2.46,2.48,2.48,0,0,0-2.42,2.46m1.4-1.72H217c.8,0,1.34.18,1.34.87,0,.38-.27.68-.77.77v0a.84.84,0,0,1,.52.52l.53,1.11H218l-.46-1a.63.63,0,0,0-.7-.43h-.08v1.43h-.57Zm.57,1.38h.17c.53,0,.83-.13.83-.45s-.3-.45-.83-.45h-.17Z"/></svg>